<svg width="38" height="44" viewBox="0 0 38 44" fill="none" xmlns="http://www.w3.org/2000/svg">
<path d="M16.6756 0.112177C13.42 0.676832 11.0227 2.39096 9.68278 5.14366C9.02327 6.4948 8.80344 7.52328 8.79297 9.2475C8.79297 10.6289 8.81391 10.7398 9.07561 11.2843C9.66184 12.4943 10.7296 13.1799 12.1428 13.2606C13.2001 13.311 13.9434 13.069 14.6971 12.4136C15.5241 11.6977 15.7753 11.1028 15.8591 9.61049C15.9638 7.98711 16.1836 7.54345 17.1153 7.06954C17.4084 6.91829 17.712 6.87796 18.5808 6.87796C19.5439 6.87796 19.7324 6.90821 20.1092 7.10987C20.8839 7.54345 21.5015 8.81392 21.355 9.68107C21.2084 10.5381 20.8315 10.9818 17.9946 13.5832C15.6288 15.7511 14.9379 17.2233 15.0426 19.8852C15.0844 20.8532 15.1263 21.0952 15.3671 21.5691C15.7021 22.2346 16.5081 22.9908 17.199 23.2933C17.9632 23.6261 19.2718 23.6059 20.0569 23.253C20.8211 22.9101 21.4596 22.285 21.8051 21.559C22.0145 21.1154 22.0877 20.7927 22.1191 20.0667L22.161 19.1391L23.0718 18.3526C24.6001 17.0317 25.804 15.8822 26.3169 15.247C28.128 13.0388 28.7142 10.8608 28.264 8.00727C27.6464 4.02443 25.1026 1.21124 21.3026 0.273506C20.1616 -0.00882149 17.8481 -0.0894871 16.6756 0.112177ZM21.02 1.87672C24.3698 2.72371 26.4635 5.40582 26.7043 9.19708C26.788 10.4272 26.6415 11.3347 26.2123 12.343C25.626 13.6942 24.8095 14.6319 22.1819 16.9813C21.4282 17.6568 20.7269 18.3627 20.6326 18.5542C20.528 18.7861 20.4651 19.1693 20.4651 19.7037C20.4651 20.3289 20.4128 20.591 20.2348 20.9439C19.5335 22.2749 17.6387 22.2749 16.9269 20.9439C16.6965 20.5305 16.6861 20.3994 16.728 19.2802C16.8012 17.1829 17.1362 16.6485 20.193 13.7345C22.496 11.5465 22.7682 11.1734 22.988 9.97348C23.3125 8.19885 22.1505 6.13181 20.4861 5.50665C19.701 5.21424 17.7853 5.17391 16.9059 5.43607C15.231 5.94023 14.3307 7.16029 14.226 9.09625C14.1527 10.4373 14.1004 10.6289 13.7445 11.0221C13.3153 11.486 12.9384 11.6675 12.3522 11.6675C11.7346 11.6675 11.2635 11.4759 10.918 11.0826C10.4679 10.5684 10.3842 10.1449 10.447 8.90467C10.6563 5.10333 13.0222 2.42122 16.7698 1.73556C17.8899 1.5339 19.9313 1.60448 21.02 1.87672Z" fill="#0455BF"/>
<path d="M3.15096 15.4084C2.50193 15.5597 1.54931 16.0941 1.08871 16.578C0.858402 16.82 0.512948 17.3242 0.334986 17.6973L0 18.3728V26.7923V35.2117L0.240771 35.7965C0.586226 36.6132 1.4551 37.4905 2.33444 37.9039L3.02534 38.2366L5.75758 38.287C8.63636 38.3375 8.89807 38.3879 9.00276 38.8215C9.02369 38.9425 9.06557 39.9003 9.07603 40.9591C9.10744 42.7539 9.11791 42.895 9.34821 43.248C9.6832 43.7723 10.3741 44.0748 11.0231 43.984C11.4837 43.9235 11.6198 43.8227 13.2948 42.2396C14.2788 41.312 15.6083 40.0617 16.2573 39.4466L17.4298 38.3375L26.2022 38.287L34.9642 38.2366L35.6656 37.9039C36.5449 37.4905 37.4138 36.6132 37.7592 35.7965L38 35.2117V26.7923V18.3728L37.665 17.6973C37.2044 16.7595 36.6182 16.1747 35.6656 15.721L34.87 15.3479L31.8028 15.3177L28.7355 15.2874L28.4738 15.5395C28.1284 15.8722 28.1284 16.3361 28.4738 16.6587L28.7251 16.9108H31.4678C33.3102 16.9108 34.3466 16.9511 34.6397 17.0318C35.2468 17.2032 36.0843 18.03 36.2518 18.6249C36.3565 18.9678 36.3774 20.9541 36.3565 27.0544L36.3251 35.0302L36.011 35.5243C35.8121 35.8268 35.4981 36.1293 35.184 36.3208L34.6711 36.6233L25.9196 36.6737C17.7857 36.7242 17.1366 36.7342 16.7493 36.9057C16.4771 37.0267 15.3989 37.9846 13.6088 39.6987C12.1118 41.1406 10.8452 42.3203 10.8033 42.3203C10.7614 42.3203 10.73 41.4834 10.73 40.4549C10.73 38.3778 10.6672 38.0955 10.0705 37.5006C9.33774 36.7544 9.21212 36.7342 6.1135 36.6737L3.32893 36.6233L2.81598 36.3208C2.50193 36.1293 2.18788 35.8268 1.98898 35.5243L1.67493 35.0302L1.64353 27.0544C1.62259 20.9541 1.64353 18.9678 1.74821 18.6249C1.9157 18.03 2.75317 17.2032 3.36033 17.0318C3.65344 16.9511 4.68981 16.9108 6.53223 16.9108H9.27493L9.52617 16.6587C9.69366 16.5075 9.78788 16.2957 9.78788 16.1041C9.78788 15.9126 9.69366 15.7008 9.52617 15.5496L9.27493 15.2975L6.41708 15.3076C4.84683 15.3177 3.38127 15.358 3.15096 15.4084Z" fill="#0455BF"/>
<path d="M17.585 24.9169C16.4649 25.2597 15.6379 25.9454 15.1564 26.9436C14.9052 27.4579 14.8633 27.6797 14.8633 28.4057C14.8633 29.1317 14.9052 29.3535 15.1564 29.8778C16.5173 32.7213 20.6209 32.7112 22.0027 29.8677C22.2539 29.3535 22.2958 29.1317 22.2958 28.4057C22.2958 27.6797 22.2539 27.4579 22.0027 26.9436C21.6886 26.2882 21.1547 25.6933 20.558 25.3303C19.7415 24.8262 18.4749 24.6447 17.585 24.9169ZM19.7311 26.7319C20.3487 27.1251 20.6209 27.6293 20.6209 28.4057C20.6209 29.1922 20.3487 29.6862 19.6996 30.0997C19.1134 30.4727 18.098 30.4929 17.5013 30.1299C16.7057 29.656 16.3393 28.7183 16.5801 27.8209C16.7266 27.3066 17.3652 26.6411 17.8677 26.5C18.4225 26.3386 19.2809 26.4395 19.7311 26.7319Z" fill="#0455BF"/>
</svg>
