<svg width="44" height="31" viewBox="0 0 44 31" fill="none" xmlns="http://www.w3.org/2000/svg">
<path d="M43 -0.00109863V31" stroke="#E2E7EB" stroke-width="2"/>
<g clip-path="url(#clip0_3922_7)">
<path d="M4.73438 10.3907C4.73438 9.86722 4.98381 9.36517 5.42782 8.995C5.87182 8.62483 6.47402 8.41687 7.10193 8.41687H21.3073C21.9352 8.41687 22.5374 8.62483 22.9814 8.995C23.4254 9.36517 23.6749 9.86722 23.6749 10.3907V22.2338C23.6749 22.7573 23.4254 23.2594 22.9814 23.6296C22.5374 23.9997 21.9352 24.2077 21.3073 24.2077H7.10193C6.47402 24.2077 5.87182 23.9997 5.42782 23.6296C4.98381 23.2594 4.73438 22.7573 4.73438 22.2338V10.3907Z" stroke="#0455BF" stroke-width="1.83333" stroke-linecap="round" stroke-linejoin="round"/>
<path d="M18.9414 6.44299V10.3907" stroke="#0455BF" stroke-width="1.83333" stroke-linecap="round" stroke-linejoin="round"/>
<path d="M9.4707 6.44299V10.3907" stroke="#0455BF" stroke-width="1.83333" stroke-linecap="round" stroke-linejoin="round"/>
<path d="M4.73438 14.3384H23.6749" stroke="#0455BF" stroke-width="1.83333" stroke-linecap="round" stroke-linejoin="round"/>
<path d="M8.28711 17.2991H8.3025" stroke="#0455BF" stroke-width="1.83333" stroke-linecap="round" stroke-linejoin="round"/>
<path d="M11.8496 17.2991H11.8567" stroke="#0455BF" stroke-width="1.83333" stroke-linecap="round" stroke-linejoin="round"/>
<path d="M15.4004 17.2991H15.4075" stroke="#0455BF" stroke-width="1.83333" stroke-linecap="round" stroke-linejoin="round"/>
<path d="M18.959 17.2991H18.9661" stroke="#0455BF" stroke-width="1.83333" stroke-linecap="round" stroke-linejoin="round"/>
<path d="M15.4062 20.2599H15.4134" stroke="#0455BF" stroke-width="1.83333" stroke-linecap="round" stroke-linejoin="round"/>
<path d="M8.29883 20.2599H8.30594" stroke="#0455BF" stroke-width="1.83333" stroke-linecap="round" stroke-linejoin="round"/>
<path d="M11.8496 20.2599H11.8567" stroke="#0455BF" stroke-width="1.83333" stroke-linecap="round" stroke-linejoin="round"/>
</g>
<defs>
<clipPath id="clip0_3922_7">
<rect width="28.4107" height="23.6862" fill="white" transform="translate(0 3.48218)"/>
</clipPath>
</defs>
</svg>
