<svg width="33" height="39" viewBox="0 0 33 39" fill="none" xmlns="http://www.w3.org/2000/svg">
<path d="M12.0435 31.6875L10.865 34.125H0V0H28.2857V22.4517L25.9286 17.5767V2.4375H2.35714V31.6875H12.0435ZM7.07143 17.0625H4.71429V14.625H7.07143V17.0625ZM19.115 17.0625H9.42857V14.625H20.2935L19.115 17.0625ZM4.71429 21.9375H7.07143V24.375H4.71429V21.9375ZM9.42857 21.9375H16.7578L15.5792 24.375H9.42857V21.9375ZM7.07143 9.75H4.71429V7.3125H7.07143V9.75ZM23.5714 9.75H9.42857V7.3125H23.5714V9.75ZM23.5714 26.8125V32.9062H21.2143V26.8125H23.5714ZM21.2143 34.125H23.5714V36.5625H21.2143V34.125ZM33 39H11.7857L22.3929 17.0625L33 39ZM15.1189 36.8672H29.6669L22.3929 21.8232L15.1189 36.8672Z" fill="#0455BF"/>
</svg>
