<svg width="44" height="31" viewBox="0 0 44 31" fill="none" xmlns="http://www.w3.org/2000/svg">
<g clip-path="url(#clip0_3922_6)">
<path d="M9.80664 9.31752C9.80664 10.5184 10.3233 11.6702 11.2428 12.5194C12.1624 13.3685 13.4097 13.8456 14.7101 13.8456C16.0106 13.8456 17.2579 13.3685 18.1775 12.5194C19.097 11.6702 19.6137 10.5184 19.6137 9.31752C19.6137 8.11659 19.097 6.96486 18.1775 6.11568C17.2579 5.26649 16.0106 4.78943 14.7101 4.78943C13.4097 4.78943 12.1624 5.26649 11.2428 6.11568C10.3233 6.96486 9.80664 8.11659 9.80664 9.31752Z" stroke="#0455BF" stroke-width="1.83333" stroke-linecap="round" stroke-linejoin="round"/>
<path d="M7.35547 25.1658V22.9017C7.35547 21.7008 7.87209 20.5491 8.79167 19.6999C9.71126 18.8507 10.9585 18.3737 12.259 18.3737H17.1625C18.463 18.3737 19.7102 18.8507 20.6298 19.6999C21.5494 20.5491 22.066 21.7008 22.066 22.9017V25.1658" stroke="#0455BF" stroke-width="1.83333" stroke-linecap="round" stroke-linejoin="round"/>
</g>
<path d="M43 0V31" stroke="#E2E7EB" stroke-width="2"/>
<defs>
<clipPath id="clip0_3922_6">
<rect width="29.4211" height="27.1685" fill="white" transform="translate(0 1.39331)"/>
</clipPath>
</defs>
</svg>
