<svg width="44" height="44" viewBox="0 0 44 44" fill="none" xmlns="http://www.w3.org/2000/svg">
<path d="M5.1561 0.178689C2.73322 0.853573 0.782882 2.96143 0.172865 5.57777C0.0010296 6.28963 0.0010296 6.64094 0.0010296 20.3328C0.0010296 36.2711 -0.0591129 34.9399 0.739923 36.6964C1.09219 37.4545 1.26402 37.6949 2.01151 38.4992C2.7504 39.2943 2.99956 39.4976 3.6955 39.8674C5.31934 40.7365 4.15086 40.6718 18.3703 40.6718H30.8713L31.2408 40.4406C31.782 40.0986 32.0484 39.5624 32.0484 38.8228C32.0484 38.0832 31.782 37.547 31.2408 37.2049L30.8713 36.9738H27.469H24.0752L22.0991 34.228C20.9994 32.6933 20.1574 31.436 20.1917 31.3805C20.2261 31.3251 23.027 27.4884 26.4122 22.8567L32.5725 14.416L36.8254 19.4822C39.7638 22.9768 41.1814 24.604 41.4306 24.7426C42.2125 25.2049 43.2778 24.9275 43.7418 24.1417L43.991 23.7164V15.0169C43.991 5.13401 44.0253 5.67022 43.2693 4.01536C42.4015 2.13863 40.7261 0.696408 38.8015 0.178689C38.1314 -0.0062111 37.8135 -0.0062111 21.9616 0.0030339C6.27303 0.0030339 5.7833 0.0122789 5.1561 0.178689ZM37.5042 3.78424C38.3204 3.91367 38.9218 4.23724 39.4889 4.83817C40.0473 5.44834 40.348 6.09549 40.4683 6.97376C40.5113 7.3528 40.5542 9.8582 40.5542 12.9183V18.2157L37.1605 14.1664C35.2875 11.9383 33.6035 10.0061 33.4059 9.8582C32.9333 9.52538 32.1171 9.50689 31.6102 9.81197C31.3525 9.95989 29.7028 12.1694 24.5993 19.1494C20.9306 24.1694 17.9063 28.2835 17.8805 28.2835C17.8548 28.2742 16.8066 26.8413 15.5522 25.0847C12.9918 21.4976 12.9403 21.4422 12.0295 21.4422C11.136 21.4422 11.0587 21.5161 8.82479 24.6317C7.73364 26.1571 6.76276 27.5624 6.67685 27.7473C6.46205 28.2095 6.47064 28.9861 6.69403 29.4668C7.01193 30.1417 7.82814 30.5947 8.4983 30.456C9.16846 30.3174 9.40044 30.0955 10.5775 28.4499C11.2047 27.5716 11.789 26.758 11.8835 26.6471L12.0467 26.4437L15.8013 31.6856L19.5559 36.9275L13.4128 36.9553C9.52073 36.9738 7.01193 36.946 6.58234 36.8813C5.68879 36.7611 5.08737 36.456 4.50312 35.8274C3.94466 35.2172 3.64395 34.5701 3.52366 33.6918C3.41197 32.8135 3.41197 7.85203 3.52366 6.97376C3.64395 6.09549 3.94466 5.44834 4.50312 4.83817C5.053 4.25573 5.68879 3.90442 6.4105 3.79348C7.14939 3.6733 36.7567 3.6733 37.5042 3.78424Z" fill="#0455BF"/>
<path d="M10.6121 6.8257C8.8508 7.3804 7.45893 8.90582 7.00357 10.7826C6.83173 11.4759 6.84032 12.8997 7.01216 13.6115C7.46752 15.516 8.94531 17.1061 10.7066 17.5961C11.3854 17.781 12.6656 17.7903 13.3443 17.5961C15.1314 17.0969 16.5834 15.5345 17.0474 13.6115C17.2278 12.8904 17.2278 11.5037 17.0474 10.7826C16.5834 8.8596 15.1314 7.2972 13.3443 6.79797C12.6398 6.60382 11.2823 6.61307 10.6121 6.8257ZM12.7858 10.6161C13.3615 10.9305 13.6622 11.4759 13.6622 12.197C13.6622 13.2232 12.9834 13.9536 12.0298 13.9536C11.0761 13.9536 10.3973 13.2232 10.3973 12.197C10.3973 11.1708 11.0589 10.4497 12.0126 10.4405C12.2961 10.4405 12.5882 10.5052 12.7858 10.6161Z" fill="#0455BF"/>
<path d="M35.9148 26.7951C35.6571 26.8875 35.2791 27.0539 35.0728 27.1649C34.6089 27.4237 30.8199 31.3436 30.5364 31.8521C30.2443 32.3883 30.2443 33.2481 30.545 33.7935C30.8629 34.3667 31.3612 34.6626 32.0399 34.6626C32.3578 34.6626 32.6843 34.6071 32.8476 34.5146C33.0022 34.4314 33.6294 33.8213 34.2566 33.1556L35.3907 31.9538L35.4165 37.3066L35.4423 42.6595L35.6399 43.057C35.932 43.6487 36.4905 44 37.1521 44C37.8136 44 38.3034 43.7504 38.6298 43.2419L38.879 42.8629L38.922 37.4083L38.9649 31.9538L40.0217 33.1464C41.3105 34.5978 41.5253 34.755 42.2642 34.755C42.9601 34.755 43.4584 34.4684 43.7763 33.886C44.0599 33.359 44.077 32.4622 43.8107 31.9908C43.4928 31.4268 40.1162 27.7288 39.5749 27.3405C39.2914 27.1464 38.8189 26.906 38.5096 26.8043C37.7964 26.5639 36.585 26.5639 35.9148 26.7951Z" fill="#0455BF"/>
</svg>
